<?xml version="1.0" encoding="UTF-8" standalone="no"?>
<!-- Created with Inkscape (http://www.inkscape.org/) -->

<svg
   xmlns:dc="http://purl.org/dc/elements/1.1/"
   xmlns:cc="http://creativecommons.org/ns#"
   xmlns:rdf="http://www.w3.org/1999/02/22-rdf-syntax-ns#"
   xmlns:svg="http://www.w3.org/2000/svg"
   xmlns="http://www.w3.org/2000/svg"
   xmlns:sodipodi="http://sodipodi.sourceforge.net/DTD/sodipodi-0.dtd"
   xmlns:inkscape="http://www.inkscape.org/namespaces/inkscape"
   width="210mm"
   height="297mm"
   id="svg4958"
   version="1.1"
   inkscape:version="0.48.4 r9939"
   inkscape:export-filename="C:\Users\Alken\Desktop\boostrap.png"
   inkscape:export-xdpi="90"
   inkscape:export-ydpi="90"
   sodipodi:docname="Bootstrap.svg">
  <defs
     id="defs4960">
    <inkscape:path-effect
       effect="spiro"
       id="path-effect4975"
       is_visible="true" />
  </defs>
  <sodipodi:namedview
     id="base"
     pagecolor="#ffffff"
     bordercolor="#666666"
     borderopacity="1.0"
     inkscape:pageopacity="0.0"
     inkscape:pageshadow="2"
     inkscape:zoom="3.959798"
     inkscape:cx="146.98156"
     inkscape:cy="943.81409"
     inkscape:document-units="px"
     inkscape:current-layer="layer1"
     showgrid="false"
     inkscape:window-width="1920"
     inkscape:window-height="1018"
     inkscape:window-x="1672"
     inkscape:window-y="-8"
     inkscape:window-maximized="1" />
  <metadata
     id="metadata4963">
    <rdf:RDF>
      <cc:Work
         rdf:about="">
        <dc:format>image/svg+xml</dc:format>
        <dc:type
           rdf:resource="http://purl.org/dc/dcmitype/StillImage" />
        <dc:title></dc:title>
      </cc:Work>
    </rdf:RDF>
  </metadata>
  <g
     inkscape:label="Ebene 1"
     inkscape:groupmode="layer"
     id="layer1">
    <path
       d="m 157.5,168.00504 -75.000003,0 c -12.4125,0 -22.5,-9.83531 -22.5,-21.9375 l 0,-73.125001 c 0,-12.10219 10.0875,-21.9375 22.5,-21.9375 l 75.000003,0 c 12.4125,0 22.5,9.83531 22.5,21.9375 l 0,73.125001 c 0,12.10219 -10.0875,21.9375 -22.5,21.9375 m 18.75,-95.062501 c 0,-10.09125 -8.4,-18.28125 -18.75,-18.28125 l -75.000003,0 c -10.35,0 -18.75,8.19 -18.75,18.28125 l 0,73.125001 c 0,10.09125 8.4,18.28125 18.75,18.28125 74.929023,0.27812 74.999883,0 74.999883,0 9.33985,-0.50508 18.75,-8.19 18.75,-18.28125 z"
       style="fill:#cbb677;fill-opacity:1;fill-rule:evenodd;stroke:none"
       id="path4255"
       inkscape:connector-curvature="0"
       sodipodi:nodetypes="cssssssscsssssccss"
       inkscape:export-filename="C:\Users\Alken\Desktop\githubgold.png"
       inkscape:export-xdpi="90"
       inkscape:export-ydpi="90" />
    <path
       style="fill:#cbb677;fill-opacity:1"
       d="m 113.51934,145.13962 c -0.12246,-0.12245 0.20484,-0.78312 0.72734,-1.46815 1.34252,-3.05961 1.04484,-6.62592 1.1004,-9.77735 0.0849,-4.81566 0.0129,-8.53185 -0.16524,-8.53185 -0.17361,0 -0.5541,0.36161 -0.84554,0.80358 -0.4042,0.61295 -0.525,0.61698 -0.71091,7.70896 -0.3385,2.81748 0.30259,5.55962 -1.3227,7.92438 -0.37376,0.3336 -2.88294,1.74032 -4.81938,1.77538 -1.29815,0.003 -1.55699,-0.55757 -0.61345,-1.32778 2.88568,-2.35558 2.73922,-1.86118 2.55054,-8.60937 l -0.0832,-2.97486 -2.30418,0.24676 c -3.70741,0.39703 -7.509722,-0.81668 -9.381032,-2.99446 -0.44367,-0.51633 -1.30463,-1.98492 -1.91325,-3.26354 -1.03435,-2.17301 -4.11658,-5.71762 -4.97178,-5.71762 -0.19708,0 -0.35832,-0.24107 -0.35832,-0.53571 0,-0.71012 2.52605,-0.72527 3.88352,-0.0233 0.54501,0.28184 1.70221,1.35058 2.57155,2.37499 3.338822,3.93434 4.134292,4.54558 6.261392,4.81135 2.12034,0.26492 5.22253,-0.0263 6.27387,-0.58896 0.35888,-0.19207 0.65311,-0.62481 0.65385,-0.96165 0.002,-0.74647 1.27976,-2.89978 2.19029,-3.69004 0.36604,-0.31768 0.78103,-1.02762 0.62409,-1.42857 -0.41164,0.13812 1.06547,-0.36443 -0.004,-0.004 -0.12764,-0.13636 -1.89873,-0.10269 -3.04659,-0.28383 -4.4837,-0.70756 -8.81775,-2.33042 -10.560992,-3.95449 -0.42232,-0.39345 -0.8876,-0.71537 -1.03396,-0.71537 -0.14635,0 -1.02369,-0.96428 -1.94962,-2.14285 -2.135842,-2.545 -3.391239,-7.19644 -3.15608,-5.99602 -0.74169,-4.38367 -0.95163,-7.020894 -0.76734,-9.638921 0.23525,-3.342003 1.0021,-5.344123 3.12505,-8.158945 1.21335,-1.608788 1.33578,-1.945662 1.01434,-2.791108 -0.81257,-2.137224 -0.27496,-8.681945 0.83261,-10.136104 0.83992,-1.10274 5.758702,0.45792 10.305222,3.269697 1.27383,0.787791 1.92381,0.982242 2.67858,0.801329 5.66808,-1.358622 11.57524,-1.617636 16.99656,-0.745258 l 3.31372,0.533229 3.73601,-1.905571 c 3.23476,-1.6499 6.18864,-2.732315 7.45642,-2.732315 0.20262,0 0.65232,0.522321 0.99933,1.160714 0.51414,0.945842 0.628,2.020202 0.6151,5.803571 -0.0157,4.605163 -0.008,4.651556 0.98696,5.714286 1.27537,1.362669 2.896,4.779882 3.48423,7.346752 0.44437,1.939133 0.34697,7.658154 -0.1927,11.313964 l -0.22406,1.51786 c -0.63457,1.39179 -1.25261,2.86249 -2.06784,4.11164 0,0.12875 -0.82421,1.09767 -1.83157,2.15316 -2.72302,2.85312 -6.74075,4.51175 -12.94624,5.34457 -2.72692,0.36598 -2.81706,0.47201 -1.43371,1.68661 2.17139,1.90651 2.37591,2.80719 2.53603,11.1683 0.079,4.125 0.31011,7.93032 0.51359,8.45627 0.20349,0.52594 1.02395,1.38905 1.82326,1.918 1.2848,0.85024 1.37941,1.00309 0.81604,1.31837 -0.8121,0.45448 -3.23323,0.12651 -4.78282,-0.64789 -2.11804,-1.05846 -2.53482,-2.61656 -2.54388,-9.51008 -0.008,-5.98356 -0.31216,-7.78467 -1.31518,-7.78467 -0.38521,0 -0.47838,1.52612 -0.47838,7.83607 -0.13905,3.6266 -0.18039,7.12614 1.42857,10.10335 0.89505,0.96073 0.93544,2.06058 0.0757,2.06058 -1.0485,0 -3.733,-1.53729 -4.48305,-2.56724 -1.01463,-1.39327 -1.26174,-3.55989 -1.28563,-11.27204 -0.0214,-6.90872 -0.12451,-7.4442 -1.27128,-6.60168 -0.2166,0.15913 -0.37441,3.30608 -0.401,7.9964 -0.0421,7.42763 -0.0775,7.79548 -0.89286,9.28572 -1.09267,1.99705 -4.50591,3.84718 -5.41689,2.93619 l 0,0 z m 19.21074,-28.34367 c 0.78572,-0.24899 2.23215,-0.85087 3.21429,-1.33753 4.05594,-2.00972 5.53571,-4.65189 5.53571,-9.88414 0,-4.77237 -1.136,-7.030384 -4.54083,-9.025751 l -1.60842,-0.942593 -14.69323,-0.003 -14.69323,-0.003 -1.78016,1.011053 c -2.02341,1.1492 -2.28648,1.37978 -3.24342,2.842877 -1.118052,1.709414 -1.572452,3.432584 -1.578172,5.984754 -0.0131,5.86314 3.054322,9.34236 9.920892,11.25254 1.6153,0.44935 4.05654,0.57408 11.77011,0.6014 3.94168,-0.1059 6.88359,0.074 11.69646,-0.4962 l 0,-2e-5 z"
       id="path3879"
       inkscape:connector-curvature="0"
       sodipodi:nodetypes="cccsccccsscsssssssssccccsssccssssssscsssscssccsssscssscsccssssssccccssscccsssscccc"
       inkscape:export-filename="C:\Users\Alken\Desktop\githubgold.png"
       inkscape:export-xdpi="90"
       inkscape:export-ydpi="90" />
    <path
       style="fill:#cbb677;fill-opacity:1"
       d="m 107.68911,108.80834 c -1.23932,-1.41745 -1.60324,-3.97582 -0.81243,-5.71145 0.5097,-1.11869 1.80249,-1.80683 2.79978,-1.4903 1.0363,0.32891 2.15777,2.22427 2.15943,3.64959 10e-4,1.20506 -0.594,2.8381 -1.30827,3.58824 -0.54783,0.57533 -2.32367,0.55276 -2.83851,-0.0361 l 0,0 z"
       id="path3881"
       inkscape:connector-curvature="0"
       inkscape:export-filename="C:\Users\Alken\Desktop\githubgold.png"
       inkscape:export-xdpi="90"
       inkscape:export-ydpi="90" />
    <path
       style="fill:#cbb677;fill-opacity:1"
       d="m 131.03698,108.50329 c -1.90819,-2.38833 -0.67816,-7.06959 1.85759,-7.06959 1.52518,0 2.76933,2.74052 2.32337,5.11773 -0.47124,2.51188 -2.84727,3.62112 -4.18096,1.95186 z"
       id="path3883"
       inkscape:connector-curvature="0"
       inkscape:export-filename="C:\Users\Alken\Desktop\githubgold.png"
       inkscape:export-xdpi="90"
       inkscape:export-ydpi="90" />
    <path
       style="fill:#aa8800;fill-opacity:1"
       d=""
       id="path3889"
       inkscape:connector-curvature="0" />
  </g>
</svg>
