<?xml version="1.0" encoding="UTF-8" standalone="no"?>
<!-- Created with Inkscape (http://www.inkscape.org/) -->

<svg
   xmlns:dc="http://purl.org/dc/elements/1.1/"
   xmlns:cc="http://creativecommons.org/ns#"
   xmlns:rdf="http://www.w3.org/1999/02/22-rdf-syntax-ns#"
   xmlns:svg="http://www.w3.org/2000/svg"
   xmlns="http://www.w3.org/2000/svg"
   xmlns:sodipodi="http://sodipodi.sourceforge.net/DTD/sodipodi-0.dtd"
   xmlns:inkscape="http://www.inkscape.org/namespaces/inkscape"
   width="210mm"
   height="297mm"
   id="svg4118"
   version="1.1"
   inkscape:version="0.48.4 r9939"
   inkscape:export-filename="C:\Users\Alken\Desktop\runtasticGold.png"
   inkscape:export-xdpi="90"
   inkscape:export-ydpi="90"
   sodipodi:docname="Runtastic.svg">
  <defs
     id="defs4120" />
  <sodipodi:namedview
     id="base"
     pagecolor="#ffffff"
     bordercolor="#666666"
     borderopacity="1.0"
     inkscape:pageopacity="0.0"
     inkscape:pageshadow="2"
     inkscape:zoom="4"
     inkscape:cx="289.44298"
     inkscape:cy="655.65345"
     inkscape:document-units="px"
     inkscape:current-layer="layer1"
     showgrid="false"
     inkscape:window-width="1680"
     inkscape:window-height="1028"
     inkscape:window-x="-8"
     inkscape:window-y="22"
     inkscape:window-maximized="1" />
  <metadata
     id="metadata4123">
    <rdf:RDF>
      <cc:Work
         rdf:about="">
        <dc:format>image/svg+xml</dc:format>
        <dc:type
           rdf:resource="http://purl.org/dc/dcmitype/StillImage" />
        <dc:title></dc:title>
      </cc:Work>
    </rdf:RDF>
  </metadata>
  <g
     inkscape:label="Ebene 1"
     inkscape:groupmode="layer"
     id="layer1">
    <path
       style="font-size:medium;font-style:normal;font-variant:normal;font-weight:normal;font-stretch:normal;text-indent:0;text-align:start;text-decoration:none;line-height:normal;letter-spacing:normal;word-spacing:normal;text-transform:none;direction:ltr;block-progression:tb;writing-mode:lr-tb;text-anchor:start;baseline-shift:baseline;color:#000000;fill-opacity:1;fill-rule:nonzero;stroke:none;stroke-width:1;marker:none;visibility:visible;display:inline;overflow:visible;enable-background:accumulate;font-family:Sans;-inkscape-font-specification:Sans;fill:#cbb677"
       d="m 425.71875,389.40625 c -0.31684,0.0491 -0.46191,0.24345 -0.59375,0.40625 0.0363,-0.0448 -0.10336,0.0937 -0.3125,0.1875 -0.20914,0.0938 -0.50469,0.20079 -0.8125,0.28125 -0.64586,0.16881 -1.53491,0.45689 -2.0625,0.6875 -2.30666,1.00823 -6.09591,2.96857 -7.53125,3.90625 -0.78779,0.51464 -2.16591,1.23192 -2.9375,1.53125 -0.88627,0.34381 -2.36218,1.09722 -3.40625,1.71875 -1.54215,0.91805 -2.43508,1.63299 -4.78125,3.8125 -1.56001,1.44922 -3.32432,3.03552 -3.875,3.5 -0.69202,0.5837 -1.5906,1.61424 -2.3125,2.625 -0.61766,0.86481 -1.75926,2.21912 -2.5,2.96875 -0.88951,0.90019 -1.7998,2.03656 -2.375,2.96875 -0.48496,0.78598 -1.16207,1.84427 -1.5,2.34375 -0.37602,0.55576 -0.90258,1.5032 -1.21875,2.1875 -0.5827,1.26117 -1.93541,3.5513 -2.9375,4.96875 -0.39344,0.55652 -1.01327,1.55959 -1.40625,2.28125 -0.37133,0.68189 -1.07652,1.91319 -1.5625,2.6875 -0.50139,0.79887 -1.11228,1.82451 -1.375,2.34375 -0.22223,0.43923 -0.75778,1.34627 -1.15625,1.9375 -0.90733,1.34622 -1.45464,2.39986 -2.125,4.09375 -1.18319,2.98975 -2.16674,4.93235 -3.0625,6.1875 -0.9555,1.33884 -2.02535,3.38452 -2.96875,5.59375 -0.14775,0.346 -0.95586,1.64369 -1.6875,2.65625 -0.928,1.2843 -1.6132,2.25431 -2.0625,2.90625 -0.22465,0.32597 -0.38383,0.56486 -0.5,0.75 -0.0581,0.0926 -0.0881,0.18042 -0.125,0.25 -0.0185,0.0348 -0.0455,0.0518 -0.0625,0.0937 -0.017,0.0419 -0.0625,0.068 -0.0625,0.21875 0,0.24728 0.10204,0.31341 0.15625,0.375 0.0542,0.0616 0.10462,0.11805 0.15625,0.15625 0.10327,0.0764 0.21505,0.12997 0.34375,0.1875 0.0973,0.0435 0.2223,0.10919 0.375,0.125 0.1527,0.0158 0.33425,-0.0339 0.46875,-0.125 0.26899,-0.18226 0.36167,-0.38774 0.53125,-0.6875 0.17244,-0.30483 0.60219,-0.94971 0.90625,-1.3125 1.30267,-1.55425 3.0417,-4.27102 3.6875,-5.84375 0.68923,-1.67853 1.23171,-2.69368 2.625,-4.75 0.64439,-0.95106 1.38694,-2.37618 2.03125,-3.90625 1.51723,-3.60301 2.00561,-4.58431 3,-6.125 0.51846,-0.80329 1.16414,-1.89331 1.46875,-2.5 0.27087,-0.53952 0.75934,-1.39488 1.0625,-1.84375 0.34518,-0.51112 0.92531,-1.47114 1.3125,-2.1875 0.36375,-0.67299 1.07557,-1.87033 1.5625,-2.59375 1.37198,-2.03835 2.2037,-3.44534 2.9375,-4.96875 0.34144,-0.70884 1.01806,-1.87857 1.4375,-2.5 0.45008,-0.66683 1.09207,-1.66496 1.4375,-2.25 0.27623,-0.46785 1.24345,-1.68204 2.0625,-2.53125 0.86773,-0.89969 2.06983,-2.30669 2.71875,-3.21875 0.59873,-0.84153 1.51096,-1.89237 1.875,-2.1875 0.50708,-0.41111 1.985,-1.71578 3.34375,-2.96875 1.35202,-1.24675 2.79252,-2.5349 3.125,-2.8125 0.87181,-0.7279 4.03697,-2.5426 5.28125,-3 0.72319,-0.26585 1.83889,-0.8268 2.59375,-1.3125 2.73095,-1.75716 7.92385,-4.26186 9.71875,-4.71875 0.88427,-0.2251 1.44861,-0.46633 1.875,-0.90625 l 0.46875,-0.5 0.46875,-0.46875 -0.59375,-0.3125 -0.40625,-0.21875 c -0.20092,-0.10753 -0.40191,-0.23664 -0.71875,-0.1875 z M 409.25,398.625 c -0.33677,0.18864 -0.55782,0.30764 -0.875,0.5 0.0596,-0.0361 0.12555,-0.11937 0.1875,-0.15625 0.20685,-0.12314 0.44538,-0.21116 0.6875,-0.34375 z"
       id="path4027"
       inkscape:connector-curvature="0"
       inkscape:export-filename="C:\Users\Alken\Desktop\runtasticGold.png"
       inkscape:export-xdpi="90"
       inkscape:export-ydpi="90" />
    <path
       style="font-size:medium;font-style:normal;font-variant:normal;font-weight:normal;font-stretch:normal;text-indent:0;text-align:start;text-decoration:none;line-height:normal;letter-spacing:normal;word-spacing:normal;text-transform:none;direction:ltr;block-progression:tb;writing-mode:lr-tb;text-anchor:start;baseline-shift:baseline;color:#000000;fill:#cbb677;fill-opacity:1;fill-rule:nonzero;stroke:none;stroke-width:1;marker:none;visibility:visible;display:inline;overflow:visible;enable-background:accumulate;font-family:Sans;-inkscape-font-specification:Sans"
       d="m 422.9375,351.25 c -0.76056,0.0123 -1.71987,0.0802 -2.59375,0.1875 -0.99031,0.12159 -1.80261,0.12351 -2.5,0.0312 -0.83212,-0.11008 -1.55517,-0.0874 -2.4375,0.0625 -0.63723,0.10825 -2.0222,0.31146 -3.03125,0.4375 -2.53048,0.31611 -7.3532,1.11991 -9.15625,1.53125 -2.70126,0.61626 -9.80601,2.48059 -11.34375,3 -0.80042,0.27036 -2.26809,0.79784 -3.28125,1.1875 -0.97069,0.37332 -2.62783,0.90311 -3.59375,1.125 -1.71656,0.39432 -2.07725,0.56379 -3.75,1.65625 -1.20011,0.7838 -2.15773,1.2565 -3,1.53125 -1.02273,0.33361 -2.80835,1.2123 -4.40625,2.0625 -0.79895,0.4251 -1.5424,0.81317 -2.09375,1.15625 -0.27568,0.17154 -0.51212,0.33346 -0.6875,0.46875 -0.0877,0.0677 -0.14781,0.14354 -0.21875,0.21875 -0.0709,0.0752 -0.1875,0.12217 -0.1875,0.4375 0,-0.23731 0.0816,-0.22374 0.0312,-0.1875 -0.0504,0.0362 -0.17392,0.10183 -0.3125,0.15625 -0.27715,0.10883 -0.65743,0.1875 -0.90625,0.1875 -0.4209,0 -1.20437,-0.24738 -1.90625,-0.59375 -0.70188,-0.34637 -1.34278,-0.82168 -1.5625,-1.125 -0.26906,-0.37142 -0.36835,-0.60022 -0.375,-0.65625 -0.007,-0.056 -0.034,-0.0124 0.125,-0.15625 0.34721,-0.31422 0.58506,-0.77409 0.6875,-1.375 0.10244,-0.60091 0.12467,-1.39475 0.0937,-2.5625 -0.0466,-1.75906 -0.11491,-2.41822 -0.40625,-3 -0.27833,-0.55583 -0.8615,-1.09177 -1.53125,-1.625 -0.66975,-0.53323 -1.42282,-1.01619 -2.0625,-1.25 -0.40254,-0.14714 -0.71905,-0.23679 -1.125,-0.25 -0.40595,-0.0132 -0.86291,0.0516 -1.6875,0.15625 -1.10406,0.14008 -2.05405,0.36114 -2.8125,0.6875 -0.75845,0.32636 -1.33258,0.75846 -1.625,1.34375 -0.11542,0.23102 -0.43516,0.68564 -0.625,0.9375 -0.28351,0.37614 -0.56495,0.97967 -0.75,1.5 -0.1365,0.38384 -0.23455,0.62699 -0.25,0.90625 -0.0154,0.27926 0.0964,0.56151 0.21875,0.75 0.12226,0.18829 0.39062,0.59248 0.5625,0.875 0.17992,0.29573 0.48609,0.75544 0.6875,1.0625 0.23987,0.36565 0.25,0.53052 0.25,1.375 0,0.77376 0.13663,1.48899 0.375,2.09375 l 0.125,0.3125 c -0.60917,0.21504 -1.39741,0.26223 -1.78125,0.15625 -0.40512,-0.11177 -0.77089,-0.15421 -1.1875,0 -0.0172,0.006 -0.35778,0.0184 -0.40625,0 -0.20591,-0.0783 -0.44929,-0.11963 -0.6875,-0.0625 -0.23821,0.0571 -0.42885,0.19045 -0.65625,0.34375 -0.26955,0.18172 -0.84232,0.51117 -1.21875,0.71875 -0.22481,0.12397 -0.44191,0.25919 -0.625,0.40625 -0.18309,0.14706 -0.34294,0.25643 -0.46875,0.5 -0.0394,0.0764 -0.32557,0.53533 -0.5625,0.84375 -0.69549,0.90535 -0.98859,1.84134 -1,3.1875 -0.0119,1.40826 -0.16345,1.82917 -1.25,3.65625 -0.25463,0.42817 -0.48552,0.83316 -0.65625,1.15625 -0.0854,0.16155 -0.13465,0.32239 -0.1875,0.4375 -0.0264,0.0575 -0.0431,0.10366 -0.0625,0.15625 -0.0194,0.0526 -0.0625,0.0751 -0.0625,0.25 0,0.16111 0.0125,0.16722 0.0312,0.21875 0.0187,0.0515 0.069,0.10235 0.0937,0.15625 0.0495,0.10781 0.10882,0.22828 0.1875,0.375 0.15735,0.29344 0.35987,0.68027 0.59375,1.0625 0.44411,0.72581 1.21102,2.11269 1.6875,3.0625 L 348.375,384 l -1.65625,1.78125 c -1.05117,1.12565 -2.67074,2.84496 -3.59375,3.8125 -0.93716,0.98236 -2.03782,2.22676 -2.5,2.84375 -0.41554,0.55471 -1.24104,1.58997 -1.8125,2.28125 -1.72771,2.08997 -2.46193,3.15057 -3.4375,4.84375 -0.49605,0.86093 -1.13454,1.86723 -1.3125,2.09375 -0.27103,0.34497 -1.24603,1.62423 -2.1875,2.9375 -1.16192,1.62077 -1.99433,2.62753 -2.65625,3.1875 -0.86452,0.73136 -1.41866,1.43782 -2.40625,3.03125 -1.05675,1.70502 -2.88284,4.07582 -4.6875,6.21875 -1.80466,2.14293 -3.62128,4.08201 -4.5625,4.78125 -0.85234,0.6332 -1.3873,1.17245 -1.8125,1.90625 -0.60724,1.04798 -1.43644,2.32935 -2.15625,3.375 -0.3599,0.52282 -0.70128,0.99604 -0.96875,1.34375 -0.26747,0.34771 -0.51775,0.5967 -0.46875,0.5625 -0.29539,0.20615 -0.79228,0.62513 -1.15625,0.9375 -0.30324,0.26024 -0.51131,0.33103 -0.65625,0.65625 -0.0725,0.16261 -0.0434,0.44438 0.0312,0.59375 0.0747,0.14937 0.14753,0.20853 0.21875,0.28125 0.0729,0.0744 0.14947,0.1743 0.3125,0.25 0.16303,0.0757 0.4054,0.0851 0.5625,0.0312 0.3142,-0.10769 0.50479,-0.31213 0.90625,-0.625 0.46883,-0.36538 1.03043,-0.81535 1.28125,-1.03125 0.19539,-0.16818 0.37778,-0.38944 0.625,-0.71875 0.24722,-0.32931 0.5238,-0.74641 0.84375,-1.21875 0.63991,-0.94468 1.38683,-2.09652 2.03125,-3.1875 0.56239,-0.9521 0.88518,-1.32961 1.34375,-1.625 1.08668,-0.69998 2.84445,-2.57258 4.75,-4.8125 1.90555,-2.23992 3.86601,-4.80657 5.0625,-6.71875 1.02534,-1.63864 1.46974,-2.16704 2.25,-2.8125 0.29488,-0.24393 0.56731,-0.51161 0.8125,-0.75 0.24519,-0.23839 0.42865,-0.41857 0.5625,-0.625 0.045,-0.0694 0.35715,-0.48397 0.75,-1.03125 0.39285,-0.54728 0.88162,-1.24864 1.40625,-1.96875 1.05885,-1.45337 2.32827,-3.28457 2.84375,-4.15625 1.06955,-1.80864 1.20652,-2.00749 3.84375,-5.34375 1.12452,-1.4226 2.84204,-3.44724 3.78125,-4.4375 0.96388,-1.01629 2.45024,-2.59441 3.3125,-3.53125 0.42556,-0.46236 0.86139,-0.92227 1.1875,-1.25 0.16306,-0.16387 0.30264,-0.279 0.40625,-0.375 0.0518,-0.048 0.0304,-0.038 0.0625,-0.0625 0.0201,0.0111 0.003,0.0127 0.0312,0.0312 0.18616,0.12377 0.52039,0.40803 1.03125,0.875 0.35387,0.32346 0.67782,0.64535 0.90625,0.875 0.0428,0.0431 0.058,0.0567 0.0937,0.0937 -0.11497,0.13247 -0.27158,0.30045 -0.4375,0.46875 -0.21615,0.21924 -0.41316,0.44303 -0.5625,0.65625 -0.14784,0.25595 -0.28048,0.5098 -0.40625,0.75 -0.13052,0.163 -0.33683,0.37418 -0.59375,0.65625 -0.51385,0.56413 -1.24153,1.33741 -2.09375,2.1875 -2.33028,2.32443 -3.17732,3.2976 -3.90625,4.46875 -0.46687,0.7501 -1.45881,2.11715 -2.15625,2.96875 -0.72363,0.88359 -1.67197,2.1059 -2.15625,2.78125 -0.45087,0.62876 -1.31466,1.67235 -1.84375,2.25 -0.57696,0.62989 -1.42489,1.69962 -1.9375,2.4375 -0.92493,1.33142 -1.77472,2.41033 -3.0625,3.84375 -0.46111,0.51325 -0.98506,1.25315 -1.25,1.78125 -0.18489,0.36855 -0.8353,1.36524 -1.375,2.09375 -1.35372,1.82731 -2.51206,3.61229 -3.15625,4.875 -0.68592,1.34453 -1.6998,2.76051 -3.09375,4.3125 -1.93285,2.15197 -4.18125,4.93316 -5.59375,6.90625 -0.689,0.96245 -1.7766,2.28941 -2.375,2.90625 -0.65178,0.67187 -1.68544,1.83508 -2.3125,2.59375 -0.60584,0.73301 -1.34431,1.54522 -1.5,1.6875 -0.32695,0.29878 -0.79017,0.87003 -1.15625,1.40625 -0.30162,0.44179 -0.46881,0.65252 -0.5625,0.96875 -0.0469,0.15812 -0.0326,0.39706 0.0625,0.5625 0.0951,0.16544 0.20111,0.25177 0.28125,0.3125 l 0.0625,0.0312 c 0.0899,0.0686 0.18189,0.13028 0.3125,0.1875 0.1556,0.0682 0.43576,0.0723 0.625,-0.0312 0.37848,-0.20714 0.41542,-0.43281 0.65625,-0.84375 0.18003,-0.30721 0.91487,-1.24715 1.53125,-1.90625 0.64838,-0.69331 1.57015,-1.73267 2.0625,-2.34375 0.45929,-0.57004 1.23323,-1.40399 1.65625,-1.8125 0.51104,-0.49351 1.32324,-1.51091 1.90625,-2.34375 1.20037,-1.71473 3.30277,-4.34086 5.5,-6.84375 1.94466,-2.21518 2.57879,-3.06201 3.53125,-4.84375 0.83573,-1.56338 1.97668,-3.33914 3.1875,-4.90625 0.50768,-0.65707 1.0949,-1.54704 1.375,-2.09375 0.19198,-0.3747 0.9331,-1.36176 1.53125,-2.03125 0.6474,-0.72463 1.6428,-2.0111 2.28125,-2.90625 0.60868,-0.85342 1.65152,-2.16947 2.25,-2.84375 0.63693,-0.71761 1.51206,-1.81752 2,-2.5 0.45468,-0.63594 1.42077,-1.88556 2.125,-2.75 0.72908,-0.89493 1.67302,-2.16323 2.125,-2.90625 0.5417,-0.89055 1.45181,-1.98278 3.75,-4.3125 0.8481,-0.85974 1.62455,-1.66174 2.1875,-2.28125 0.28147,-0.30976 0.52218,-0.5799 0.6875,-0.78125 0.0827,-0.10067 0.13308,-0.17192 0.1875,-0.25 0.071,-0.1204 0.12493,-0.25003 0.1874,-0.37505 0.0309,-0.0543 0.0787,-0.11995 0.15625,-0.21875 0.15506,-0.19759 0.38665,-0.45421 0.625,-0.6875 0.23835,-0.23329 0.4852,-0.47291 0.6875,-0.625 0.009,-0.007 0.0224,0.007 0.0312,0 -4.9e-4,0.2087 0.005,0.38243 -0.0312,1 -0.15986,2.74073 -0.26592,4.00434 -0.25,4.75 0.0159,0.74566 0.19071,1.05946 0.40625,1.5 0.34305,0.73768 0.45655,1.618 0.65615,2.31255 0.0698,0.19951 0.16377,0.43815 0.28125,0.71875 0.23496,0.5612 0.55341,1.24889 0.90625,1.96875 0.34577,0.70543 0.66621,1.35924 0.875,1.84375 0.17982,0.46896 0.32974,0.9443 0.4687,1.3437 -0.0191,-0.023 0.10071,0.27834 0.1875,0.65625 0.0868,0.37791 0.1683,0.85652 0.21875,1.34375 0.0505,0.48723 0.0996,0.99833 0.0937,1.40625 -0.006,0.40792 -0.0716,0.75891 -0.0937,0.8125 -0.21205,0.44312 -0.39846,0.64071 -0.5936,0.93735 -0.53011,0.58577 -0.88043,1.48701 -0.875,2.28125 0.002,0.22767 0.0304,0.48828 0.0937,0.8125 0.0633,0.32422 0.15503,0.68909 0.25,1.03125 0.37559,1.3531 0.58102,2.13846 0.65625,2.59375 0.0752,0.45529 0.0568,0.54555 -0.0312,0.8125 -0.0625,0.18948 -0.10309,0.35816 -0.125,0.53125 -0.0109,0.0865 -0.0349,0.19206 -0.0312,0.28125 0.002,0.0569 0.0382,0.14034 0.0625,0.21875 0.002,0.0258 0.004,0.0864 0,0.15625 -0.008,0.13966 -0.0244,0.3404 -0.0625,0.53125 -0.10343,0.51761 -0.21053,1.61319 -0.25,2.59375 -0.0364,0.90419 -0.1668,2.17371 -0.3125,3.25 -0.0729,0.53815 -0.14621,1.02813 -0.21875,1.40625 -0.0725,0.37812 -0.18489,0.70987 -0.15625,0.65625 -0.15895,0.2974 -0.1875,0.58829 -0.1875,0.90625 0,0.12324 -0.15664,0.67259 -0.34375,1.15625 -0.0935,0.24183 -0.18663,0.47733 -0.28125,0.65625 -0.0946,0.17892 -0.20972,0.3319 -0.1875,0.3125 -0.11289,0.0986 -0.20052,0.20074 -0.28125,0.3125 -0.0807,0.11176 -0.1875,0.15962 -0.1875,0.46875 0,-0.1826 0.0196,-0.15383 0.0312,-0.15625 -0.0387,0.0514 -0.1304,0.15052 -0.21875,0.25 -0.17669,0.19895 -0.4101,0.44778 -0.6875,0.71875 -0.72482,0.70802 -1.46466,1.19402 -2.8125,1.90625 -0.5281,0.27905 -1.01385,0.50402 -1.375,0.65625 -0.57965,0.18173 -1.02013,0.4582 -1.37489,0.81244 -0.0777,0.14214 -0.12453,0.22665 -0.19196,0.44643 -0.18442,0.61317 0.0241,1.22111 0.16514,1.70982 0.18753,0.2513 0.37123,0.35515 0.62054,0.46875 0.32524,0.11471 0.70123,0.28778 0.89062,0.36719 0.64725,0.22834 0.34719,0.11758 0.73438,0.24214 0.12308,0.0269 0.42108,0.14007 0.59375,0.20312 0.34535,0.12613 0.71878,0.34377 0.71875,0.34375 0.83253,0.42497 1.56062,0.5326 2.42411,0.45089 0.33644,-0.0725 0.54896,0.0155 0.85714,-0.23214 0.3075,-0.24711 0.38641,-0.28257 0.53125,-0.3125 0.14484,-0.0299 0.45717,-0.0399 1.15625,0 l 1.4375,0.0937 0.53125,0.0312 0.20089,-0.24107 c 0.2873,-0.41648 0.41738,-0.84687 0.58039,-1.25893 0.0859,-0.2422 0.15622,-0.55085 0.25,-0.875 0.18755,-0.6483 0.39059,-1.3463 0.46875,-1.84375 0.0484,-0.30792 0.26505,-1.12278 0.46875,-1.65625 0.2405,-0.62984 0.48551,-1.58795 0.5625,-2.25 0.0315,-0.2712 0.0662,-0.53339 0.125,-0.75 0.0588,-0.21661 0.18419,-0.41397 0.0937,-0.3125 0.11197,-0.12562 0.15999,-0.2222 0.21875,-0.34375 0.0588,-0.12155 0.12337,-0.24415 0.1875,-0.40625 0.12826,-0.3242 0.25223,-0.7184 0.375,-1.125 0.23143,-0.76644 0.60321,-1.70912 0.71875,-1.9375 0.196,-0.38744 0.34375,-0.7957 0.34375,-1.21875 0,0.0776 -0.001,-0.007 0.0312,-0.125 0.0325,-0.11789 0.0929,-0.28431 0.15625,-0.46875 0.12668,-0.36888 0.30502,-0.84711 0.5,-1.3125 l 0.71875,-1.71875 0.0312,-0.0937 0,-0.0937 0.0937,-3.5 c 0.0212,-1.02242 0.0499,-1.93906 0.0937,-2.625 0.0219,-0.34297 0.0388,-0.63568 0.0625,-0.84375 0.005,-0.04 -0.006,-0.0265 0,-0.0625 0.60785,0.54088 1.30866,0.89394 2.09375,0.90625 0.81898,0.0129 1.70427,-0.2949 2.78125,-0.8125 0.68235,-0.32794 1.86941,-0.77151 2.96875,-1.125 0.54967,-0.17675 1.07439,-0.32863 1.5,-0.4375 0.42561,-0.10887 0.78936,-0.15625 0.84375,-0.15625 0.1288,0 0.77122,0.0913 1.25,0.1875 0.41073,0.0825 0.60278,0.13117 0.6875,0.1875 0.0847,0.0563 0.17072,0.1748 0.375,0.5 0.11705,0.18633 0.20709,0.38094 0.28125,0.53125 0.0316,0.0641 0.0774,0.0849 0.0937,0.125 0.003,0.007 -0.002,0.0254 0,0.0312 0.0156,0.44706 0.24262,0.79216 0.5,1.1875 0.26316,0.40421 0.57607,0.80749 0.9375,1.09375 0.38593,0.30566 0.62027,0.51258 1.03125,0.5625 0.14328,0.0174 0.29747,-0.052 0.4375,-0.125 0.0692,0.0654 0.1098,0.14573 0.21875,0.1875 0.26595,0.10205 0.53045,0.14012 0.78125,0.125 0.1254,-0.008 0.23164,-0.0263 0.375,-0.0937 0.14336,-0.0674 0.375,-0.24952 0.375,-0.53125 0,0.1762 -0.0889,0.24755 -0.125,0.28125 -0.0361,0.0337 -0.0373,0.034 -0.0312,0.0312 0.0121,-0.006 0.085,-0.0229 0.15625,-0.0312 0.26178,-0.0308 0.54341,-0.16574 0.75,-0.375 0.20659,-0.20926 0.37423,-0.46728 0.59375,-0.84375 0.15244,-0.26144 0.27893,-0.45768 0.375,-0.6875 0.0961,-0.22982 0.1542,-0.50793 0.125,-0.78125 -0.0584,-0.54665 -0.32226,-1.08563 -0.8125,-2.25 -0.42941,-1.01987 -0.5294,-1.43745 -0.53125,-2.125 -0.002,-0.67603 -0.18609,-1.48736 -0.4375,-2.21875 -0.35021,-1.01883 -0.41865,-1.56718 -0.875,-1.96875 -0.22818,-0.20079 -0.5254,-0.27191 -0.8125,-0.3125 -0.2871,-0.0406 -0.60036,-0.0676 -1.03125,-0.0937 l -1.53125,-0.0937 -0.21875,0 -0.15625,0.15625 -0.75,0.71875 -0.53125,0.53125 -1.15625,-0.21875 c -0.37063,-0.0689 -0.745,-0.16289 -1.03125,-0.25 -0.14313,-0.0435 -0.25992,-0.0904 -0.34375,-0.125 -0.0838,-0.0346 -0.15392,-0.0849 -0.0937,-0.0312 -0.17067,-0.15228 -0.4782,-0.30026 -0.78125,-0.3125 -0.30305,-0.0122 -0.63683,0.0409 -1.21875,0.125 -1.06036,0.15331 -1.66506,0.22092 -1.96875,0.1875 -0.30369,-0.0334 -0.30047,-0.0717 -0.46875,-0.3125 l -0.125,-0.1875 0.15625,-0.1875 c 0.34214,-0.41525 0.63881,-0.94553 0.875,-1.46875 0.23619,-0.52322 0.39961,-1.00779 0.40625,-1.46875 0.0201,-1.31826 0.41955,-2.38713 1.375,-3.65625 0.91567,-1.21628 1.16142,-1.68013 1.625,-3.03125 0.30944,-0.90188 0.38882,-1.61454 0.4375,-3.8125 0.0159,-0.71831 0.0514,-1.39556 0.0937,-1.9375 0.0212,-0.27097 0.0397,-0.51611 0.0625,-0.6875 0.0228,-0.17139 0.0866,-0.30907 0.0625,-0.25 -0.001,0.003 0.0797,-0.1673 0.21875,-0.3125 0.13904,-0.1452 0.33687,-0.29401 0.5,-0.40625 0.41689,-0.28683 0.84588,-0.62477 1.09375,-0.875 0.10009,-0.10105 0.75504,-0.65163 1.3125,-1.0625 0.60912,-0.44895 1.24978,-1.01544 1.5625,-1.46875 0.16012,-0.2321 0.66284,-0.74364 1,-1 0.22708,-0.17265 0.45069,-0.36117 0.625,-0.5625 0.17431,-0.20133 0.29628,-0.37966 0.375,-0.65625 0.0811,-0.28474 0.0931,-0.56587 0.0937,-0.96875 6.6e-4,-0.40288 -0.0281,-0.89652 -0.0625,-1.375 -0.0687,-0.95697 -0.14962,-1.88662 -0.34375,-2.4375 -0.1527,-0.4333 -0.38863,-0.91132 -0.59375,-1.21875 -0.10035,-0.15038 -0.2967,-0.5503 -0.375,-0.78125 -0.0664,-0.19594 -0.15976,-0.32683 -0.28125,-0.5 -0.12149,-0.17317 -0.25484,-0.36827 -0.4375,-0.59375 -0.36532,-0.45096 -0.86731,-0.99092 -1.375,-1.53125 -0.48805,-0.51942 -0.96699,-1.06212 -1.34375,-1.5 -0.37676,-0.43788 -0.6641,-0.83487 -0.6875,-0.875 -0.0999,-0.17125 -0.20751,-0.31036 -0.3125,-0.4375 -0.0525,-0.0636 -0.0908,-0.13074 -0.15625,-0.1875 -0.0654,-0.0568 -0.11148,-0.15308 -0.40625,-0.15625 -0.0143,-0.005 -0.0135,-0.0249 -0.0312,-0.0312 -0.0888,-0.0319 -0.22737,-0.0956 -0.375,-0.15625 -0.29525,-0.12137 -0.65947,-0.26908 -1.03125,-0.4375 -0.33874,-0.15345 -0.64884,-0.31064 -0.90625,-0.4375 0.0985,-0.0812 0.17456,-0.1511 0.3125,-0.25 0.47447,-0.3402 1.15767,-0.76653 1.90625,-1.1875 1.49715,-0.84195 3.29499,-1.69512 4.34375,-2 0.99923,-0.29047 1.97363,-0.83731 3.59375,-1.9375 1.21577,-0.82562 1.57263,-0.93194 3.59375,-1.375 0.98086,-0.21502 2.4586,-0.66421 3.375,-1.03125 5.3259,-2.13317 15.66065,-4.66027 22.8125,-5.5625 0.7531,-0.095 2.1041,-0.29568 3,-0.4375 1.27217,-0.20144 1.72967,-0.2222 2.625,-0.0937 0.75536,0.10836 1.54584,0.13071 2.125,0.0312 0.35211,-0.0604 1.44446,-0.12013 2.28125,-0.125 0.71505,-0.004 1.10011,-0.027 1.4375,-0.0937 0.33739,-0.0667 0.62247,-0.27267 0.78125,-0.46875 0.10436,-0.12885 0.18786,-0.26828 0.25,-0.40625 0.0311,-0.069 0.077,-0.12535 0.0937,-0.21875 0.0167,-0.0934 0.0265,-0.2429 -0.0937,-0.4375 -0.0981,-0.15871 -0.18187,-0.1884 -0.25,-0.21875 -0.0681,-0.0303 -0.13231,-0.05 -0.1875,-0.0625 -0.11038,-0.0251 -0.21259,-0.0206 -0.34375,-0.0312 -0.26233,-0.0212 -0.58847,-0.0374 -0.96875,-0.0312 z M 361.5,355.78125 c 0.26442,0.0102 0.36428,0.0605 0.65625,0.1875 0.37282,0.1622 0.957,0.53341 1.4375,0.9375 0.4805,0.40409 0.87012,0.91606 0.90625,1 -0.0118,-0.0275 0.0911,0.26965 0.125,0.625 0.0339,0.35535 0.0503,0.8147 0.0625,1.28125 0.0244,0.93309 -0.0201,1.94841 -0.0937,2.375 -0.0368,0.21335 -0.25472,0.65724 -0.3125,0.71875 -0.29799,0.31718 -0.46875,0.67421 -0.46875,1.125 0,0.42802 0.15703,0.83306 0.375,1.25 0.21797,0.41694 0.50215,0.84479 0.84375,1.15625 0.60007,0.54712 1.46211,1.00593 2.34375,1.375 0.88164,0.36907 1.75124,0.625 2.5,0.625 0.57837,0 1.00927,0.11863 2.25,0.6875 0.424,0.1944 0.84562,0.42576 1.1875,0.625 0.34188,0.19924 0.63395,0.41618 0.625,0.40625 0.19809,0.21972 0.74167,0.85617 1.1875,1.375 0.46594,0.54222 1.28111,1.39387 1.84375,1.9375 0.26507,0.25612 0.488,0.49827 0.65625,0.6875 0.0841,0.0946 0.15155,0.17062 0.1875,0.21875 0.005,0.0125 0.0272,0.0493 0.0312,0.0625 0.0133,0.0438 0.0137,0.0786 0.0312,0.125 0.0351,0.0927 0.0691,0.18515 0.125,0.3125 0.11178,0.2547 0.27132,0.57172 0.4375,0.90625 0.53004,1.06701 0.54348,1.185 0.625,2.6875 0.0243,0.44999 0.0318,0.87678 0.0312,1.21875 -2.6e-4,0.17099 0.006,0.33285 0,0.4375 -0.006,0.10465 -0.0301,0.18559 0,0.0937 0.0272,-0.0828 0.034,-0.0115 0,0.0312 -0.034,0.0427 -0.11731,0.0862 -0.1875,0.15625 -0.14037,0.14009 -0.33321,0.3192 -0.53125,0.46875 -0.24107,0.18205 -0.45693,0.38814 -0.65625,0.59375 -0.19932,0.20561 -0.35579,0.39025 -0.46875,0.625 0.0178,-0.037 -0.15824,0.19294 -0.375,0.40625 -0.21676,0.21331 -0.50208,0.44056 -0.78125,0.65625 -2.46228,1.90232 -3.24784,2.51858 -3.59375,3.1875 -0.29293,0.56647 -0.30818,1.32486 -0.34375,3.34375 -0.0391,2.21645 -0.0845,2.72668 -0.375,3.625 -0.15319,0.47375 -0.45627,1.09963 -0.78125,1.65625 -0.32498,0.55662 -0.72276,1.06115 -0.875,1.1875 -0.24938,0.20696 -0.32653,0.42246 -0.46875,0.71875 -0.14222,0.29629 -0.30335,0.6483 -0.4375,1.03125 -0.26829,0.76589 -0.49353,1.62759 -0.5625,2.28125 -0.11127,1.05452 -0.22989,1.29561 -1.28125,2.65625 -0.79961,1.03482 -1.30663,1.72388 -1.625,2.1875 -0.31837,0.46362 -0.5,0.65974 -0.5,1.0625 0,-0.16989 0.006,-0.0382 -0.0312,0.0625 -0.0376,0.10073 -0.11257,0.23865 -0.1875,0.40625 -0.14986,0.33519 -0.36229,0.77676 -0.59375,1.21875 -1.46332,2.79442 -1.73367,3.99506 -1.875,8.25 l -0.125,3.5 -0.625,1.4375 c -0.18843,0.42798 -0.34269,0.88372 -0.46875,1.25 -0.063,0.18314 -0.11788,0.32433 -0.15625,0.46875 -0.0384,0.14442 -0.0624,0.2723 -0.0625,0.4375 3e-5,-0.0372 -0.0456,0.19952 -0.125,0.4375 -0.0794,0.23798 -0.19088,0.49292 -0.3125,0.75 -0.13537,0.28615 -0.25221,0.58197 -0.34375,0.8125 -0.0458,0.11526 -0.0956,0.22249 -0.125,0.3125 -0.0294,0.09 -0.0624,0.11783 -0.0625,0.3125 -0.52092,1.85495 -1.09669,3.75573 -1.65625,5.5 -0.15616,0.46673 -0.27095,0.95588 -0.375,1.34375 -0.052,0.19394 -0.094,0.35326 -0.125,0.5 -0.031,0.14674 -0.0625,0.25747 -0.0625,0.40625 0,0.0844 -0.10013,0.50941 -0.1875,0.71875 -0.20622,0.4941 -0.33656,0.94586 -0.375,1.34375 -0.083,0.14723 -0.88947,0.0389 -1.18755,0.0313 -0.80286,-0.0311 -1.22067,-0.0679 -1.59375,0 -0.37308,0.0679 -0.63203,0.2764 -0.875,0.5 l -0.25,0.25 -2.09375,-0.8125 c -0.64317,-0.25359 -1.22851,-0.52197 -1.65625,-0.71875 -0.0107,-0.005 -0.0208,0.005 -0.0312,0 0.1131,-0.0621 0.17804,-0.12476 0.3125,-0.1875 3.95638,-1.84617 6.12161,-3.80029 7.03125,-6.46875 0.68258,-2.00236 0.93867,-3.76972 1.6875,-11.9375 0.0759,-0.82834 -0.001,-1.47706 -0.40625,-2.90625 -0.3449,-1.21762 -0.49414,-1.92489 -0.46875,-2.4375 0.0254,-0.51261 0.19479,-0.9035 0.625,-1.59375 0.71428,-1.14544 0.78125,-1.40282 0.78125,-2.875 0,-2.15489 -0.58757,-4.1479 -2,-6.96875 -0.75583,-1.5095 -1.12987,-2.47243 -1.21875,-3.03125 -0.0963,-0.60521 -0.30803,-1.39251 -0.5625,-1.90625 -0.35377,-0.71422 -0.47568,-1.83277 -0.21875,-3.1875 0.13093,-0.69045 0.24151,-1.76841 0.28125,-2.71875 0.0199,-0.47517 0.01,-0.92785 0,-1.28125 -0.005,-0.1767 -0.0151,-0.3037 -0.0312,-0.4375 -0.0161,-0.1338 0.0299,-0.21055 -0.125,-0.4375 -0.20244,-0.29663 -0.45384,-0.34619 -0.71875,-0.40625 -0.26491,-0.0601 -0.59597,-0.10217 -1,-0.125 L 352.6875,385.84375 351.75,385 c -0.28928,-0.26137 -0.56515,-0.52867 -0.75,-0.71875 -0.0924,-0.095 -0.1466,-0.1698 -0.1875,-0.21875 -0.0204,-0.0245 -0.0339,-0.0353 -0.0312,-0.0312 0.12057,0.22531 0.10361,0.15542 -0.0625,-0.0937 -0.0404,-0.0664 -0.0787,-0.1341 -0.125,-0.1875 -0.0926,-0.10679 -0.18743,-0.21413 -0.3125,-0.3125 0.0509,0.0401 -0.17681,-0.19518 -0.34375,-0.46875 -0.16694,-0.27357 -0.33848,-0.62245 -0.5,-0.96875 -0.35383,-0.75862 -1.0435,-2.03318 -1.5625,-2.90625 -0.24991,-0.4204 -0.49449,-0.81758 -0.65625,-1.125 -0.0755,-0.14346 -0.14693,-0.25615 -0.1875,-0.34375 0.003,-0.006 -0.003,-0.0252 0,-0.0312 0.0346,-0.0746 0.0908,-0.19 0.15625,-0.3125 0.14157,-0.26496 0.34264,-0.61148 0.5625,-0.96875 1.00746,-1.63706 1.33856,-2.58925 1.34375,-4.125 0.004,-1.34812 0.22994,-1.85989 1.3125,-2.96875 0.66725,-0.68347 1.03387,-1.00373 1.40625,-1.15625 0.37238,-0.15252 0.82717,-0.18795 1.75,-0.15625 1.29161,0.0444 1.9509,-0.0314 2.90625,-0.3125 0.33731,-0.0992 0.63406,-0.20057 0.875,-0.3125 0.12047,-0.056 0.24498,-0.11883 0.34375,-0.1875 0.0494,-0.0343 0.0995,-0.0613 0.15625,-0.125 0.0568,-0.0637 0.125,-0.16141 0.125,-0.375 0,-0.17074 -0.007,-0.18939 -0.0312,-0.28125 -0.0245,-0.0919 -0.0545,-0.2217 -0.0937,-0.34375 -0.0784,-0.2441 -0.19581,-0.53599 -0.3125,-0.84375 -0.33495,-0.88337 -0.3526,-1.05707 -0.28125,-1.84375 0.0399,-0.43971 0.0538,-0.73688 0,-1.03125 -0.0538,-0.29437 -0.20343,-0.53424 -0.375,-0.75 -0.15985,-0.20102 -0.44844,-0.66902 -0.59375,-0.9375 -0.18729,-0.34607 -0.46138,-0.74873 -0.6875,-1 -0.058,-0.0645 -0.0816,-0.0775 -0.0937,-0.0937 0.004,0.0136 0.0356,-0.0962 0.15625,-0.40625 0.12368,-0.31776 0.44661,-0.92732 0.65625,-1.21875 0.13638,-0.1896 0.2808,-0.38879 0.375,-0.5625 0.26267,-0.37428 0.51266,-0.56787 0.8124,-0.78125 0.637,-0.31577 1.19535,-0.44561 2.5,-0.59375 0.80047,-0.0909 1.23558,-0.13518 1.5,-0.125 z m 31.46875,1.46875 c -0.42258,0.13593 -0.91653,0.27051 -1.3125,0.40625 0.15981,-0.0559 0.40398,-0.14451 0.53125,-0.1875 0.0931,-0.0314 0.63422,-0.17381 0.78125,-0.21875 z m -25.0625,47.90625 c 0.23719,0.37144 0.57501,0.71511 1.0625,0.8125 0.51946,0.10378 1.12745,0.0474 2.1875,-0.0625 0.6411,-0.0665 1.05379,-0.0973 1.3125,-0.0937 0.25871,0.004 0.32669,0.0206 0.34375,0.0312 0.2433,0.15193 0.44036,0.20213 0.75,0.28125 0.30964,0.0791 0.69096,0.15749 1.0625,0.21875 0.35072,0.0578 0.69546,0.10067 0.96875,0.15625 0.27329,0.0556 0.53117,0.15001 0.46875,0.125 0.36879,0.14784 0.61616,-0.0219 0.84375,-0.15625 0.22759,-0.13434 0.46763,-0.30862 0.75,-0.5625 l 0.625,-0.59375 0.96875,0.0312 0.84375,0.0312 0.25,0.65625 c 0.23866,0.59311 0.34848,1.20161 0.375,1.96875 0.036,1.04303 0.197,1.63574 0.8125,3.0625 l 0.625,1.4375 -0.25,0.40625 c -0.0753,0.13067 -0.17991,0.27357 -0.28125,0.375 -0.10134,0.10143 -0.22717,0.14492 -0.15625,0.125 -0.435,0.1222 -0.73932,0.13964 -0.96875,0.0937 -0.22943,-0.0459 -0.41621,-0.13496 -0.65625,-0.375 -0.12455,-0.12455 -0.24382,-0.28581 -0.34375,-0.4375 -0.0999,-0.15169 -0.15816,-0.32121 -0.15625,-0.3125 -0.12358,-0.56456 -0.19778,-0.74004 -0.71875,-1.65625 -0.28014,-0.49267 -0.58675,-0.87305 -1.03125,-1.125 -0.4445,-0.25195 -0.97487,-0.38186 -1.75,-0.5 -0.56905,-0.0867 -0.94531,-0.12113 -1.40625,-0.0625 -0.46094,0.0586 -0.95377,0.19331 -1.875,0.46875 -1.98072,0.59221 -2.74978,0.87936 -4.40625,1.6875 -0.64731,0.3158 -1.09765,0.43776 -1.46875,0.40625 -0.3711,-0.0315 -0.69044,-0.1778 -1.09375,-0.5625 -0.14953,-0.14266 -0.30241,-0.26048 -0.46875,-0.34375 -0.008,-0.004 -0.0229,0.004 -0.0312,0 0.0731,-0.19223 0.16515,-0.42785 0.28125,-0.6875 0.254,-0.56804 0.57402,-1.22457 0.84375,-1.6875 0.32117,-0.55121 0.61988,-1.19241 0.71875,-1.65625 0.0345,-0.16169 0.28552,-0.63728 0.4375,-0.8125 0.18528,-0.21362 0.36392,-0.45715 0.53125,-0.6875 z"
       id="path4029"
       inkscape:connector-curvature="0"
       inkscape:export-filename="C:\Users\Alken\Desktop\runtasticGold.png"
       inkscape:export-xdpi="90"
       inkscape:export-ydpi="90"
       sodipodi:nodetypes="cscccsssssssscccccsscccsccscccssscccscscccccccsscscscscscccscccscsscsssssssscccccscscsssssssssssssssscccsccccccsssscsscsssssscscscccccssssssscssscscscccccsccccccssccccccccsccccccccscccsccccccsscccccccccccsccccccccscsccsccccccccccscccssssccccccssccccscsccsccsscsscccccccccccccccccscssccsccscsscsccccccssssccccccsccscssssccccsccscccsccccscssccssssssscsscccccsccscsscscscsccscsssssccccccccccsscccccsssccsccccccsccccsscsccsscccccccccccsssccccccsscccccscsccsscccccccccccccccscccccccccccccccccsccsccssccssccccsscccc" />
    <path
       style="font-size:medium;font-style:normal;font-variant:normal;font-weight:normal;font-stretch:normal;text-indent:0;text-align:start;text-decoration:none;line-height:normal;letter-spacing:normal;word-spacing:normal;text-transform:none;direction:ltr;block-progression:tb;writing-mode:lr-tb;text-anchor:start;baseline-shift:baseline;color:#000000;fill:#cbb677;fill-opacity:1;fill-rule:nonzero;stroke:none;stroke-width:1;marker:none;visibility:visible;display:inline;overflow:visible;enable-background:accumulate;font-family:Sans;-inkscape-font-specification:Sans"
       d="m 371.78125,376.03125 c -0.39954,-0.0239 -0.77143,0.18503 -1,0.5 -0.45714,0.62993 -0.60836,1.61048 -0.625,2.96875 -0.011,0.89883 0.0907,1.72762 0.28125,2.4375 0.19053,0.70988 0.43088,1.30131 0.875,1.6875 0.97408,0.51565 1.46788,-0.0304 2.21875,-0.53125 0.0945,-0.0742 0.18816,-0.15435 0.28125,-0.25 0.18619,-0.19131 0.37743,-0.41151 0.5625,-0.65625 0.18507,-0.24474 0.3655,-0.5174 0.5,-0.75 0.25358,-0.36492 0.29592,-0.69588 0.3437,-0.8125 0.0799,-0.15137 0.21684,-0.36239 0.34375,-0.5625 l 0.46875,-0.75 0.21875,-0.34375 -0.28125,-0.28125 -0.34375,-0.375 c -0.11493,-0.12234 -0.22912,-0.22369 -0.34375,-0.3125 -0.0573,-0.0444 -0.12197,-0.0879 -0.1875,-0.125 -0.0655,-0.0371 -0.10013,-0.0937 -0.3125,-0.0937 0.22691,0 0.12229,0.014 0.0937,0 -0.0285,-0.014 -0.0614,-0.0241 -0.125,-0.0625 -0.12724,-0.0767 -0.29836,-0.18906 -0.46875,-0.3125 -0.19622,-0.14214 -0.41861,-0.2767 -0.59375,-0.375 -0.0876,-0.0491 -0.13789,-0.0902 -0.21875,-0.125 -0.0585,-0.0251 -0.15782,-0.048 -0.25,-0.0625 -0.0129,-0.006 -0.0525,-0.0361 -0.0937,-0.0625 -0.0825,-0.0529 -0.18563,-0.13013 -0.28125,-0.21875 -0.3282,-0.30416 -0.66296,-0.50732 -1.0625,-0.53125 z m 0.28125,2.3125 c 0.145,0.0593 0.29262,0.10449 0.46875,0.1875 0.51829,0.24427 1.09837,0.60649 1.28125,0.75 l 0.0625,0.0312 -0.46875,0.9375 c -0.46967,0.92861 -0.74595,1.21694 -0.9375,1.3125 -0.25684,0.12813 -0.27735,0.10849 -0.25,0.125 -0.0163,-0.032 -0.009,-0.0449 -0.0312,-0.0937 0.0217,0.0486 -0.0133,-0.0358 -0.0312,-0.15625 -0.018,-0.12047 -0.0161,-0.2807 -0.0312,-0.46875 -0.0303,-0.37609 -0.0535,-0.84801 -0.0625,-1.3125 -0.009,-0.46449 -0.0161,-0.90942 0,-1.25 10e-4,-0.026 -0.001,-0.0378 0,-0.0625 z"
       id="path4033"
       inkscape:connector-curvature="0"
       inkscape:export-filename="C:\Users\Alken\Desktop\runtasticGold.png"
       inkscape:export-xdpi="90"
       inkscape:export-ydpi="90"
       sodipodi:nodetypes="csccccsscccccccccccccccccccccscccsccccsccc" />
    <path
       style="font-size:medium;font-style:normal;font-variant:normal;font-weight:normal;font-stretch:normal;text-indent:0;text-align:start;text-decoration:none;line-height:normal;letter-spacing:normal;word-spacing:normal;text-transform:none;direction:ltr;block-progression:tb;writing-mode:lr-tb;text-anchor:start;baseline-shift:baseline;color:#000000;fill:#cbb677;fill-opacity:1;fill-rule:nonzero;stroke:none;stroke-width:1;marker:none;visibility:visible;display:inline;overflow:visible;enable-background:accumulate;font-family:Sans;-inkscape-font-specification:Sans"
       d="m 353.6875,376.0625 -0.3125,0.21875 -0.65625,0.53125 c -0.45748,0.35024 -0.79773,0.76274 -1,1.28125 -0.20227,0.51851 -0.27303,1.11746 -0.28125,1.90625 -0.007,0.64153 0.01,1.11476 0.1875,1.5625 0.17769,0.44774 0.4919,0.81873 0.90625,1.1875 0.64506,0.57409 1.59985,0.56725 2.28125,0.0312 0.80309,-0.63171 0.92054,-1.81482 0.53125,-2.90625 -0.0946,-0.26526 -0.21875,-1.04762 -0.21875,-1.53125 0,-0.46908 0.0124,-0.75723 -0.0937,-1.0625 -0.10613,-0.30527 -0.36382,-0.52378 -0.59375,-0.6875 l -0.46875,-0.3125 -0.28125,-0.21875 z m -0.3125,3.34375 c 0.0685,0.33349 0.13023,0.68661 0.21875,0.9375 0.0985,0.27911 0.13734,0.81333 0.125,0.875 -0.0267,0.13376 -0.0479,0.0653 -0.0312,0.0625 0.0166,-0.003 -0.0573,0.0189 -0.1875,-0.125 0.0754,0.0833 -0.053,-0.1202 -0.0937,-0.375 -0.0408,-0.2548 -0.0609,-0.59957 -0.0625,-0.9375 -7.4e-4,-0.15775 0.0227,-0.28531 0.0312,-0.4375 z"
       id="path4035"
       inkscape:connector-curvature="0"
       inkscape:export-xdpi="90"
       inkscape:export-ydpi="90"
       sodipodi:nodetypes="cccsccsccscccccccccccccc"
       inkscape:export-filename="C:\Users\Alken\Desktop\runtasticGold.png" />
    <path
       d="m 405.79958,456.67421 -75,0 c -12.4125,0 -22.5,-9.83531 -22.5,-21.9375 l 0,-73.125 c 0,-12.10219 10.0875,-21.9375 22.5,-21.9375 l 75,0 c 12.4125,0 22.5,9.83531 22.5,21.9375 l 0,73.125 c 0,12.10219 -10.0875,21.9375 -22.5,21.9375 m 18.75,-95.0625 c 0,-10.09125 -8.4,-18.28125 -18.75,-18.28125 l -75,0 c -10.35,0 -18.75,8.19 -18.75,18.28125 l 0,73.125 c 0,10.09125 8.4,18.28125 18.75,18.28125 74.92902,0.27812 74.99988,0 74.99988,0 9.33985,-0.50508 18.75,-8.19 18.75,-18.28125 z"
       style="fill:#cbb677;fill-opacity:1;fill-rule:evenodd;stroke:none"
       id="path4255"
       inkscape:connector-curvature="0"
       sodipodi:nodetypes="cssssssscsssssccss"
       inkscape:export-filename="C:\Users\Alken\Desktop\runtasticGold.png"
       inkscape:export-xdpi="90"
       inkscape:export-ydpi="90" />
    <path
       style="font-size:medium;font-style:normal;font-variant:normal;font-weight:normal;font-stretch:normal;text-indent:0;text-align:start;text-decoration:none;line-height:normal;letter-spacing:normal;word-spacing:normal;text-transform:none;direction:ltr;block-progression:tb;writing-mode:lr-tb;text-anchor:start;baseline-shift:baseline;color:#000000;fill:#cbb677;fill-opacity:1;fill-rule:nonzero;stroke:none;stroke-width:1;marker:none;visibility:visible;display:inline;overflow:visible;enable-background:accumulate;font-family:Sans;-inkscape-font-specification:Sans"
       d="m 421.25,355.46875 c -3.83653,0.0515 -3.91211,0.0647 -7.40625,0.78125 -2.71201,0.55614 -3.91916,0.72265 -5.5,0.78125 -2.25989,0.0838 -2.5191,0.15824 -4.71875,1.15625 -1.22434,0.55549 -1.72501,0.69201 -3.28125,0.90625 -1.24533,0.17145 -2.47764,0.45989 -3.4375,0.8125 -0.75834,0.27857 -1.87434,0.59513 -2.375,0.6875 -0.36629,0.0676 -0.92272,0.24925 -1.625,0.5 -0.70228,0.25075 -1.53587,0.57948 -2.3125,0.90625 -1.53045,0.64396 -3.19596,1.31531 -3.625,1.46875 -2.21589,0.79246 -4.4416,1.85659 -6.65625,3.15625 -1.25666,0.73747 -2.20396,1.252 -2.875,1.59375 -0.33552,0.17087 -0.62063,0.29906 -0.8125,0.375 -0.19187,0.0759 -0.32215,0.0941 -0.28125,0.0937 -0.20675,0.002 -0.25131,0.0488 -0.34375,0.0937 -0.0924,0.0449 -0.21437,0.0926 -0.3125,0.15625 -0.19626,0.12721 -0.41221,0.31651 -0.625,0.5 -0.31813,0.27432 -0.50588,0.4232 -0.65625,0.6875 -0.0171,0.93086 0.38509,0.98283 0.9375,1.28125 0.37442,-0.0749 0.51836,-0.2638 0.84375,-0.53125 0.25562,-0.21009 0.74306,-0.45779 0.78125,-0.46875 0.36516,-0.10481 0.83611,-0.33824 1.5625,-0.71875 0.72639,-0.38051 1.68642,-0.90551 2.875,-1.59375 0.6288,-0.3641 1.85093,-0.97735 3.09375,-1.5625 0.89404,-0.42093 1.79311,-0.85455 2.5,-1.15625 0.35345,-0.15085 0.68318,-0.26029 0.90625,-0.34375 0.11153,-0.0417 0.18925,-0.0754 0.25,-0.0937 0.0607,-0.0184 0.13444,0 0.0312,0 8.2e-4,0 0.0759,-0.0281 0.0937,-0.0312 0.0179,-0.003 0.0214,0.002 0.0312,0 0.0197,-0.005 0.0192,0.004 0.0312,0 0.0241,-0.008 0.0383,-0.0224 0.0625,-0.0312 0.0485,-0.0176 0.11392,-0.0335 0.1875,-0.0625 0.14717,-0.058 0.34946,-0.14908 0.59375,-0.25 0.48858,-0.20184 1.16256,-0.47613 1.875,-0.78125 1.40118,-0.60008 3.12429,-1.20717 3.625,-1.3125 0.66538,-0.13997 1.70386,-0.44724 2.375,-0.6875 1.67047,-0.59801 1.82722,-0.62199 3.84375,-0.90625 1.57563,-0.2221 2.18201,-0.41753 3.625,-1.09375 1.65439,-0.7753 1.51009,-0.75051 3.46875,-0.84375 1.40274,-0.0668 3.15128,-0.29988 5.625,-0.78125 3.44317,-0.66999 3.65535,-0.70803 7.5,-0.8125 1.92493,-0.0523 2.92381,-0.0637 3.5,-0.125 0.2881,-0.0306 0.48116,-0.0738 0.6875,-0.1875 0.20634,-0.11366 0.3453,-0.35515 0.375,-0.46875 0.0344,-0.13149 0.0322,-0.27787 0.0312,-0.40625 -9.2e-4,-0.12838 0.0675,-0.25021 -0.1875,-0.5 -3.8e-4,-3.7e-4 -0.0387,-0.0476 -0.0625,-0.0625 -0.0238,-0.0149 -0.0462,-0.0238 -0.0625,-0.0312 -0.0326,-0.0149 -0.0757,-0.0259 -0.0937,-0.0312 -0.0361,-0.0106 -0.0425,-0.0279 -0.0625,-0.0312 -0.04,-0.007 -0.0889,0.003 -0.125,0 -0.0721,-0.006 -0.1429,-0.0272 -0.25,-0.0312 -0.2142,-0.008 -0.51641,0.003 -0.875,0 -0.71718,-0.006 -1.69135,-0.0142 -2.75,0 z m -1.96875,1.0625 c -1.18351,0.0519 -2.52451,0.21237 -3.53125,0.375 1.0662,-0.19858 2.42108,-0.3385 3.53125,-0.375 z"
       id="path4031"
       inkscape:connector-curvature="0"
       inkscape:export-filename="C:\Users\Alken\Desktop\runtasticGold.png"
       inkscape:export-xdpi="90"
       inkscape:export-ydpi="90"
       sodipodi:nodetypes="cscssccsssscccccsccccssssccccccccsssssscsscccccsccccssccccc" />
    <path
       style="fill:#806600;fill-opacity:0.65882353"
       id="path4381"
       d="m 370.94747,377.58496 c -247.29831,449.85148 -123.64916,224.92574 0,0 z"
       inkscape:connector-curvature="0"
       sodipodi:nodetypes="cc" />
    <path
       style="fill:#aa8800;fill-opacity:1"
       d=""
       id="path4923"
       inkscape:connector-curvature="0" />
    <path
       style="fill:#aa8800;fill-opacity:1"
       d=""
       id="path4927"
       inkscape:connector-curvature="0" />
    <path
       style="fill:#aa8800;fill-opacity:1"
       d=""
       id="path4929"
       inkscape:connector-curvature="0" />
  </g>
</svg>
