<?xml version="1.0" encoding="UTF-8" standalone="no"?>
<!-- Created with Inkscape (http://www.inkscape.org/) -->

<svg
   xmlns:dc="http://purl.org/dc/elements/1.1/"
   xmlns:cc="http://creativecommons.org/ns#"
   xmlns:rdf="http://www.w3.org/1999/02/22-rdf-syntax-ns#"
   xmlns:svg="http://www.w3.org/2000/svg"
   xmlns="http://www.w3.org/2000/svg"
   xmlns:sodipodi="http://sodipodi.sourceforge.net/DTD/sodipodi-0.dtd"
   xmlns:inkscape="http://www.inkscape.org/namespaces/inkscape"
   width="210mm"
   height="297mm"
   id="svg4958"
   version="1.1"
   inkscape:version="0.48.4 r9939"
   inkscape:export-filename="C:\Users\Alken\Desktop\xingGold.png"
   inkscape:export-xdpi="90"
   inkscape:export-ydpi="90"
   sodipodi:docname="xing.svg">
  <defs
     id="defs4960">
    <inkscape:path-effect
       effect="spiro"
       id="path-effect4975"
       is_visible="true" />
  </defs>
  <sodipodi:namedview
     id="base"
     pagecolor="#ffffff"
     bordercolor="#666666"
     borderopacity="1.0"
     inkscape:pageopacity="0.0"
     inkscape:pageshadow="2"
     inkscape:zoom="3.959798"
     inkscape:cx="76.719117"
     inkscape:cy="961.08706"
     inkscape:document-units="px"
     inkscape:current-layer="layer1"
     showgrid="false"
     inkscape:window-width="1680"
     inkscape:window-height="1028"
     inkscape:window-x="-8"
     inkscape:window-y="22"
     inkscape:window-maximized="1" />
  <metadata
     id="metadata4963">
    <rdf:RDF>
      <cc:Work
         rdf:about="">
        <dc:format>image/svg+xml</dc:format>
        <dc:type
           rdf:resource="http://purl.org/dc/dcmitype/StillImage" />
        <dc:title></dc:title>
      </cc:Work>
    </rdf:RDF>
  </metadata>
  <g
     inkscape:label="Ebene 1"
     inkscape:groupmode="layer"
     id="layer1">
    <path
       d="m 157.5,168.00504 -75.000003,0 c -12.4125,0 -22.5,-9.83531 -22.5,-21.9375 l 0,-73.125001 c 0,-12.10219 10.0875,-21.9375 22.5,-21.9375 l 75.000003,0 c 12.4125,0 22.5,9.83531 22.5,21.9375 l 0,73.125001 c 0,12.10219 -10.0875,21.9375 -22.5,21.9375 m 18.75,-95.062501 c 0,-10.09125 -8.4,-18.28125 -18.75,-18.28125 l -75.000003,0 c -10.35,0 -18.75,8.19 -18.75,18.28125 l 0,73.125001 c 0,10.09125 8.4,18.28125 18.75,18.28125 74.929023,0.27812 74.999883,0 74.999883,0 9.33985,-0.50508 18.75,-8.19 18.75,-18.28125 z"
       style="fill:#cbb677;fill-opacity:0.94117647;fill-rule:evenodd;stroke:none"
       id="path4255"
       inkscape:connector-curvature="0"
       sodipodi:nodetypes="cssssssscsssssccss"
       inkscape:export-filename="D:\ProgrammingStuff\Projekte\OwnHP\images\xingGold.png"
       inkscape:export-xdpi="90"
       inkscape:export-ydpi="90" />
    <path
       style="fill:#cbb677;fill-opacity:1"
       d="m 74.549516,125.20499 c -0.915543,-0.85302 -1.027575,-0.61058 2.913489,-6.30464 0.378872,-0.54739 1.056329,-1.56745 1.505465,-2.26679 0.449127,-0.69935 1.106523,-1.61484 1.460862,-2.03442 0.354348,-0.41959 0.644256,-0.83374 0.644256,-0.92033 0,-0.0866 1.593495,-2.41655 3.541113,-5.1777 1.9476,-2.76114 3.541094,-5.07876 3.541094,-5.15028 0,-0.0715 0.446553,-0.67728 0.992331,-1.34615 1.780308,-2.181799 1.653408,-2.868639 -1.179485,-6.383849 -0.453519,-0.56274 -0.824589,-1.185411 -0.824589,-1.383698 0,-0.198294 -0.151749,-0.360532 -0.337239,-0.360532 -0.185481,0 -0.337257,-0.133013 -0.337257,-0.295577 0,-0.162572 -0.531162,-0.96063 -1.180368,-1.773464 -0.649197,-0.812834 -1.180359,-1.62888 -1.180359,-1.813431 0,-0.184552 -0.113823,-0.3782 -0.252936,-0.430338 -0.319932,-0.119886 -1.360458,-1.558557 -1.86813,-2.582942 -0.213147,-0.430095 -0.506043,-0.781993 -0.650871,-0.781993 -0.14481,0 -0.263304,-0.181279 -0.263304,-0.402845 0,-0.221565 -0.15534,-0.446502 -0.345204,-0.499861 -0.492273,-0.138367 -0.75528,-2.001666 -0.354222,-2.509622 0.49977,-0.633004 16.950455,-0.791741 18.685996,-0.180307 1.047722,0.369112 3.597322,2.966191 3.597322,3.664309 0,0.121791 0.50862,0.891272 1.13031,1.70996 1.00663,1.325641 5.886,8.261251 7.48866,10.644511 0.59358,0.88268 0.59237,0.94145 -0.0409,1.990529 -0.35895,0.59455 -0.72853,1.14497 -0.82126,1.22317 -0.15761,0.13289 -0.60895,0.78067 -1.48597,2.13271 -0.20289,0.31279 -0.44478,0.63279 -0.53752,0.71111 -0.0927,0.0783 -0.45355,0.59017 -0.80177,1.13745 -0.34824,0.54727 -0.89879,1.37893 -1.22344,1.84813 -0.32465,0.46919 -1.11886,1.62086 -1.7649,2.55924 -0.64604,0.9384 -2.23307,3.24172 -3.52674,5.1185 -1.293661,1.87679 -2.566837,3.73224 -2.829294,4.12323 -0.26244,0.391 -0.553068,0.77499 -0.645804,0.8533 -0.09274,0.0783 -0.453537,0.59017 -0.801774,1.13745 -1.479834,2.3257 -2.020365,3.00938 -2.861442,3.61933 -0.876519,0.63565 -1.021923,0.64517 -9.858743,0.64552 -8.261144,2.9e-4 -9.013184,-0.0407 -9.527273,-0.51968 l 0,0 z"
       id="path3006"
       inkscape:connector-curvature="0"
       inkscape:export-filename="D:\ProgrammingStuff\Projekte\OwnHP\images\xingGold.png"
       inkscape:export-xdpi="90"
       inkscape:export-ydpi="90" />
    <path
       style="fill:#cbb677;fill-opacity:1"
       d="m 132.73589,153.00825 c -1.47871,-0.50008 -2.09993,-1.28146 -6.54409,-8.23106 -0.55007,-0.86019 -1.42171,-2.13981 -1.93696,-2.8436 -0.51526,-0.7038 -1.14553,-1.6955 -1.4006,-2.2038 -0.25508,-0.5083 -0.57849,-0.92418 -0.7187,-0.92418 -0.1402,0 -0.25492,-0.11837 -0.25492,-0.26305 0,-0.14468 -0.91057,-1.61545 -2.02348,-3.26837 -1.11293,-1.65291 -2.02349,-3.08232 -2.02349,-3.17646 0,-0.0941 -0.28291,-0.51082 -0.62868,-0.92596 -0.59092,-0.70947 -1.11693,-1.50218 -4.27458,-6.44201 -0.6998,-1.09479 -1.52833,-2.31044 -1.84116,-2.70144 -0.31284,-0.39099 -0.99611,-1.38253 -1.51839,-2.20342 l -0.94959,-1.4925 0.64353,-1.06674 c 0.35395,-0.5867 1.06088,-1.60164 1.57096,-2.25542 0.5101,-0.65376 0.92744,-1.24753 0.92744,-1.31947 0,-0.072 1.23534,-1.90434 2.74523,-4.072 1.50988,-2.16766 3.07811,-4.45304 3.48497,-5.07863 1.30289,-2.0034 2.60749,-3.92911 4.0455,-5.971589 0.77078,-1.09479 2.06004,-2.95025 2.86503,-4.12323 0.80498,-1.172986 1.8199,-2.60982 2.25538,-3.192966 0.4355,-0.583136 0.79181,-1.114681 0.79181,-1.181216 0,-0.151713 1.48295,-2.34014 5.00569,-7.386935 1.51305,-2.167654 2.75101,-4.055104 2.75101,-4.19432 0,-0.139226 0.15176,-0.253128 0.33724,-0.253128 0.18549,0 0.33725,-0.115673 0.33725,-0.257046 0,-0.272086 0.64229,-1.243513 5.67211,-8.578804 2.18785,-3.190665 1.85704,-3.107305 12.33056,-3.107305 6.42768,0 8.9528,0.09318 9.24699,0.341231 0.5515,0.465027 0.51026,1.964386 -0.0734,2.666969 -0.53716,0.646656 -4.61268,6.475148 -5.75057,8.224051 -1.18109,1.815291 -2.15137,3.223934 -4.25388,6.175652 -1.08256,1.519828 -2.52324,3.631206 -3.20151,4.69196 -0.67826,1.060745 -1.51911,2.268284 -1.86855,2.68342 -0.34943,0.415145 -0.63534,0.895001 -0.63534,1.066357 0,0.171355 -0.15176,0.311552 -0.33724,0.311552 -0.18549,0 -0.33724,0.141745 -0.33724,0.314984 0,0.173231 -1.28997,2.146534 -2.86662,4.385094 -1.57664,2.23856 -2.86662,4.197539 -2.86662,4.353279 0,0.15573 -0.11381,0.32581 -0.25292,0.37795 -0.31663,0.11865 -1.41183,1.63329 -1.66205,2.29858 -0.10294,0.27369 -0.32123,0.49763 -0.48509,0.49763 -0.16385,0 -0.29791,0.13842 -0.29791,0.30761 0,0.16918 -0.55481,1.0969 -1.23289,2.06161 -1.15628,1.64503 -1.83638,2.62735 -4.7582,6.87251 -2.34059,3.4007 -2.77736,4.09625 -2.77736,4.42282 0,0.18279 0.76916,1.43779 1.70924,2.78889 1.93922,2.78704 2.02429,2.91463 3.62971,5.44235 0.64566,1.01659 1.43012,2.16825 1.74326,2.55925 0.31313,0.391 1.10101,1.54265 1.75086,2.55924 1.70587,2.66861 3.02348,4.64934 3.31034,4.97632 0.13722,0.15639 0.77947,1.1161 1.42722,2.1327 1.35814,2.13149 2.7994,4.31334 4.97777,7.53557 1.80156,2.66487 3.37273,5.23752 3.37273,5.52257 0,0.16875 -0.30353,0.56275 -0.67451,0.87554 -0.64008,0.53971 -1.10881,0.56781 -9.19,0.5507 -4.68354,-0.01 -8.86642,-0.1367 -9.29531,-0.28174 l 0,0 z"
       id="path3008"
       inkscape:connector-curvature="0"
       inkscape:export-filename="D:\ProgrammingStuff\Projekte\OwnHP\images\xingGold.png"
       inkscape:export-xdpi="90"
       inkscape:export-ydpi="90" />
  </g>
</svg>
