<?xml version="1.0" encoding="UTF-8" standalone="no"?>
<!-- Created with Inkscape (http://www.inkscape.org/) -->

<svg
   xmlns:dc="http://purl.org/dc/elements/1.1/"
   xmlns:cc="http://creativecommons.org/ns#"
   xmlns:rdf="http://www.w3.org/1999/02/22-rdf-syntax-ns#"
   xmlns:svg="http://www.w3.org/2000/svg"
   xmlns="http://www.w3.org/2000/svg"
   xmlns:sodipodi="http://sodipodi.sourceforge.net/DTD/sodipodi-0.dtd"
   xmlns:inkscape="http://www.inkscape.org/namespaces/inkscape"
   width="210mm"
   height="297mm"
   id="svg3185"
   version="1.1"
   inkscape:version="0.48.4 r9939"
   sodipodi:docname="Neues Dokument 7">
  <defs
     id="defs3187" />
  <sodipodi:namedview
     id="base"
     pagecolor="#ffffff"
     bordercolor="#666666"
     borderopacity="1.0"
     inkscape:pageopacity="0.0"
     inkscape:pageshadow="2"
     inkscape:zoom="1.4"
     inkscape:cx="378.33709"
     inkscape:cy="834.49948"
     inkscape:document-units="px"
     inkscape:current-layer="layer1"
     showgrid="false"
     inkscape:window-width="1920"
     inkscape:window-height="1018"
     inkscape:window-x="1672"
     inkscape:window-y="-8"
     inkscape:window-maximized="1" />
  <metadata
     id="metadata3190">
    <rdf:RDF>
      <cc:Work
         rdf:about="">
        <dc:format>image/svg+xml</dc:format>
        <dc:type
           rdf:resource="http://purl.org/dc/dcmitype/StillImage" />
        <dc:title></dc:title>
      </cc:Work>
    </rdf:RDF>
  </metadata>
  <g
     inkscape:label="Ebene 1"
     inkscape:groupmode="layer"
     id="layer1">
    <path
       inkscape:connector-curvature="0"
       id="path3101"
       style="fill:#d4aa00;fill-opacity:1;fill-rule:evenodd;stroke:none"
       d="m 206.68483,153.29805 -75.00001,0 c -12.41209,0 -22.5,-9.80002 -22.5,-21.85863 l 0,-72.860955 c 0,-12.058499 10.08791,-21.858286 22.5,-21.858286 l 75.00001,0 c 12.41208,0 22.49999,9.799787 22.49999,21.858286 l 0,72.860955 c 0,12.05861 -10.08791,21.85863 -22.49999,21.85863 m -11.24967,-43.71676 0,-10.929109 -7.68763,0.03613 -3.63748,0 0,-3.643036 0,-7.286165 c 0,-4.663121 3.71213,-7.249635 7.16269,-7.28607 l 7.87472,0 0,-10.96559 -14.96263,0 c -5.96265,0 -11.24966,5.027415 -11.24966,10.929135 l 0,18.215336 -11.25035,0 0,10.929099 11.25035,0 -0.22643,40.07326 11.4748,0 0,-40.07326 11.24984,0 z m 30,-51.002825 c 0,-10.054817 -8.4,-18.215221 -18.75033,-18.215221 l -75.00001,0 c -10.34965,0 -18.75034,8.160404 -18.75034,18.215221 l 0,72.860955 c 0,10.05471 8.40069,18.21538 18.75034,18.21538 l 37.42524,0 0,-36.39396 -11.17489,-0.0361 0,-18.215268 11.21229,0.03614 0.0351,-14.608679 c 0,-5.683175 4.2,-14.572172 15.00004,-14.572172 l 1.4251,0 c 17.43715,0 17.13717,0.03614 17.13717,0.03614 l 0,18.215321 -11.39998,0 c 0,0 -3.6,0.03613 -3.6,3.64299 l 0,7.286129 11.43767,-0.03613 0,18.215238 -11.25041,0 0,36.43092 18.75044,0 c 10.3495,0 18.7495,-8.16116 18.7495,-18.21519 l 0,-72.861585 z"
       inkscape:export-filename="C:\Users\Alken\Desktop\fb120.png"
       inkscape:export-xdpi="90"
       inkscape:export-ydpi="90" />
    <path
       inkscape:connector-curvature="0"
       id="path3093"
       style="fill:#d4aa00;fill-opacity:1;fill-rule:nonzero;stroke:none"
       d="m 353.0313,40.671419 -7.08748,7.286111 -10.05,0 c 6.67499,3.643055 10.57499,9.544756 10.57499,17.304463 0,6.48463 -4.08748,11.584907 -9.29997,15.592283 -5.09999,3.861607 -6.075,5.464568 -6.075,8.779739 0,2.805168 5.475,7.577532 8.32499,9.544814 8.3625,5.756021 10.83748,11.074871 10.83748,20.000351 0,11.11129 -10.83748,23.49767 -30.86245,23.49767 -17.58746,0 -32.8874,-8.30614 -32.8874,-19.41745 0,-11.29349 13.98744,-22.14975 31.57491,-22.14975 1.91249,0 3.67499,-0.0726 5.475,-0.0726 -2.4,-2.29514 -4.31251,-5.10028 -4.31251,-8.56119 0,-2.003659 0.67502,-4.080216 1.6125,-5.828889 l -0.52499,0.03632 c -0.7875,0 -1.575,-0.109247 -2.39998,-0.109247 -14.43746,0 -24.11245,-10.309831 -24.11245,-22.659785 0,-12.094938 13.34995,-23.242656 27.56244,-23.242656 l 31.64992,0 z m -30.18745,43.133707 c 7.98751,0 13.61249,-8.160404 12.22499,-18.433829 -1.38752,-10.3827 -9.48748,-18.725278 -17.66247,-18.980294 l -0.33762,0 c -7.98746,0 -13.27495,7.868983 -11.88746,18.142408 1.42503,10.382671 9.1875,19.016729 17.32496,19.271715 l 0.3376,0 z m -3.52496,51.694894 c 17.06245,0 23.02494,-6.08388 23.02494,-15.08222 0,-1.0565 -0.14989,-2.11297 -0.37502,-3.16943 -1.34999,-5.06385 -6.07499,-7.57757 -12.67495,-12.02207 -2.4,-0.76505 -5.02499,-1.20224 -7.87501,-1.23864 l -0.30012,0 c -12.03747,0 -22.72496,7.24967 -22.72496,15.993 0,8.96189 8.77498,15.51936 20.92497,15.51936 m 64.68736,-91.07627 0,14.462917 14.99996,0 0,7.395387 -14.99996,0 0,14.462946 -7.49999,0 0,-14.462946 -14.99999,0 0,-7.395387 14.99999,0 0,-14.462917 7.49999,0 z m -22.27497,-7.395386 -8.69998,0 -31.64992,0 c -16.38747,0 -31.31243,12.823549 -31.31243,26.885711 0,14.280772 10.87498,25.246344 25.64992,26.22997 -0.14989,0.765046 -0.22512,1.530064 -0.22512,2.331544 0,1.712267 0.33763,3.38804 1.01254,5.027437 -18.44994,0.619306 -33.74994,12.167774 -33.74994,25.756374 0,12.93282 16.0875,23.06051 36.63743,23.06051 16.98748,0 34.61244,-10.16412 34.61244,-27.14073 0,-10.52844 -3.37501,-16.75802 -12.41247,-22.951231 -3.18751,-2.185862 -6.37498,-5.537438 -6.74999,-6.739645 0,-1.602962 0.11241,-2.368008 4.61247,-5.792454 7.12498,-5.391727 10.7625,-11.621342 10.7625,-18.433857 0,-5.173119 -1.5375,-9.836207 -4.425,-13.661408 l 0.14989,0 1.61248,0 1.08751,-1.129365 7.08751,-7.286111 5.99996,-6.156745 z m -38.88743,43.133707 -0.22483,0 c -6.26248,-0.182463 -12.56248,-7.577532 -13.68747,-16.102256 -0.67499,-4.735987 0.33763,-8.961914 2.69999,-11.584908 1.4625,-1.602961 3.29998,-2.440848 5.43747,-2.440848 l 0.22513,0 c 5.77498,0.182174 12.82496,6.557471 14.06245,15.810834 0.63749,4.626653 -0.44999,9.034783 -2.88747,11.730647 -1.08751,1.165743 -2.92499,2.586531 -5.62501,2.586531 m -3.52499,51.694889 c -9.93746,0 -17.17498,-4.99097 -17.17498,-11.8763 0,-6.48463 9.0375,-12.34995 18.97497,-12.34995 l 0.26259,0 c 2.175,0 4.27499,0.32789 6.26248,0.87432 l 1.98751,1.34795 c 5.32497,3.49729 7.91248,5.35526 8.69998,8.30614 0.14989,0.72858 0.26231,1.49366 0.26231,2.25868 0,5.31885 -2.17499,11.43916 -19.27494,11.43916 m 68.43735,-91.076265 -3.74999,0 -7.5,0 -3.74999,0 0,3.643055 0,10.819891 -11.24999,0 -3.74997,0 0,3.643026 0,7.395387 0,3.643056 3.74997,0 11.24999,0 0,10.81989 0,3.643055 3.74999,0 7.5,0 3.74999,0 0,-3.643055 0,-10.81989 11.24996,0 3.75,0 0,-3.643056 0,-7.395387 0,-3.643026 -3.75,0 -11.24996,0 0,-10.819891 0,-3.643055 z"
       inkscape:export-filename="C:\Users\Alken\Desktop\g120.png"
       inkscape:export-xdpi="90"
       inkscape:export-ydpi="90" />
    <path
       inkscape:connector-curvature="0"
       id="path3009"
       style="fill:#d4aa00;fill-opacity:1;fill-rule:evenodd;stroke:none"
       d="m 549.542,151.86946 -75.00003,0 c -12.4125,0 -22.5,-9.79982 -22.5,-21.85832 l 0,-72.861198 c 0,-12.058529 10.0875,-21.85835 22.5,-21.85835 l 75.00003,0 c 12.41247,0 22.49997,9.799821 22.49997,21.85835 l 0,72.861198 c 0,12.0585 -10.0875,21.85832 -22.49997,21.85832 m 18.74997,-94.719518 c 0,-10.054837 -8.39999,-18.215287 -18.74997,-18.215287 l -75.00003,0 c -10.34998,0 -18.75,8.16045 -18.75,18.215287 l 0,72.861198 c 0,10.05481 8.40002,18.21526 18.75,18.21526 l 75.00003,0 c 10.34998,0 18.74997,-8.16045 18.74997,-18.21526 l 0,-72.861198 z m -18.74997,83.790328 -75.00003,0 c -6.22499,0 -11.24999,-4.88167 -11.24999,-10.92913 l 0,-51.002847 16.31252,0 c -0.71253,1.165804 -1.35,2.404448 -1.91252,3.643064 l -10.64999,0 0,47.359783 c 0,4.00733 3.37499,7.28607 7.49998,7.28607 l 75,0 c 4.12499,0 7.50001,-3.27874 7.50001,-7.28607 l 0,-47.359783 -10.65002,0 c -0.56246,-1.238616 -1.19996,-2.47726 -1.91246,-3.643064 l 16.31251,0 0,51.002847 c 0,6.04746 -5.02502,10.92913 -11.25001,10.92913 m 5.62499,-72.861138 -11.25001,0 c -3.11251,0 -5.62499,-2.440882 -5.62499,-5.46458 l 0,-10.92919 c 0,-3.023727 2.51248,-5.464609 5.62499,-5.464609 l 11.25001,0 c 3.11251,0 5.62502,2.440882 5.62502,5.464609 l 0,10.92919 c 0,3.023698 -2.51251,5.46458 -5.62502,5.46458 m 1.87502,-14.572253 c 0,-2.003663 -1.68751,-3.643063 -3.75,-3.643063 l -7.50001,0 c -2.06253,0 -3.75001,1.6394 -3.75001,3.643063 l 0,7.286127 c 0,2.003663 1.68748,3.643063 3.75001,3.643063 l 7.50001,0 c 2.06249,0 3.75,-1.6394 3.75,-3.643063 l 0,-7.286127 z m -45.00003,76.504261 c -18.63748,0 -33.75001,-14.68155 -33.75001,-32.78753 0,-18.106012 15.11253,-32.787541 33.75001,-32.787541 18.63749,0 33.75002,14.681529 33.75002,32.787541 0,18.10598 -15.11253,32.78753 -33.75002,32.78753 m 0,-61.932008 c -16.57499,0 -30,13.042158 -30,29.144478 0,16.10232 13.42501,29.14448 30,29.14448 16.57503,0 30.00001,-13.04216 30.00001,-29.14448 0,-16.10232 -13.42498,-29.144478 -30.00001,-29.144478 m 0,51.002828 c -12.4125,0 -22.49999,-9.79982 -22.49999,-21.85835 0,-12.05853 10.08749,-21.858351 22.49999,-21.858351 12.41251,0 22.5,9.799821 22.5,21.858351 0,12.05853 -10.08749,21.85835 -22.5,21.85835 m 0,-40.073667 c -10.34997,0 -18.74999,8.16045 -18.74999,18.215317 0,10.05484 8.40002,18.21529 18.74999,18.21529 10.35001,0 18.75003,-8.16045 18.75003,-18.21529 0,-10.054867 -8.40002,-18.215317 -18.75003,-18.215317"
       inkscape:export-filename="C:\Users\Alken\Desktop\Insta120.png"
       inkscape:export-xdpi="90"
       inkscape:export-ydpi="90" />
  </g>
</svg>
